The.Town.2010.EXTENDED.CUT.720p.Bluray.x264.anoXmous

Format                           : MPEG-4
Format profile                   : Base Media
Codec ID                         : isom
File size                        : 700 MiB
Duration                         : 2h 30mn
Overall bit rate mode            : Variable
Overall bit rate                 : 650 Kbps


Video
ID                               : 1
Format                           : AVC
Format/Info                      : Advanced Video Codec
Format profile                   : High@L4.1
Format settings, CABAC           : Yes
Format settings, ReFrames        : 4 frames
Codec ID                         : avc1
Codec ID/Info                    : Advanced Video Coding
Duration                         : 2h 30mn
Bit rate                         : 582 Kbps
Maximum bit rate                 : 4 865 Kbps
Width                            : 1 280 pixels
Height                           : 536 pixels
Display aspect ratio             : 2.40:1
Frame rate mode                  : Constant
Frame rate                       : 23.976 fps
Color space                      : YUV
Chroma subsampling               : 4:2:0
Bit depth                        : 8 bits
Scan type                        : Progressive
Bits/(Pixel*Frame)               : 0.035
Stream size                      : 627 MiB (90%)
Writing library                  : x264 core 120 r2120 0c7dab9


Audio
ID                               : 2
Format                           : AAC
Format/Info                      : Advanced Audio Codec
Format profile                   : LC
Codec ID                         : 40
Duration                         : 2h 30mn
Bit rate mode                    : Variable
Bit rate                         : 66.2 Kbps
Maximum bit rate                 : 99.4 Kbps
Channel(s)                       : 2 channels
Channel positions                : Front: L R
Sampling rate                    : 48.0 KHz 
Compression mode                 : Lossy
Stream size                      : 70.3 MiB (10%)


Menu
00:00:00.000                     : 00:00:00.000
00:10:53.111                     : 00:10:53.111
00:23:54.433                     : 00:23:54.433
00:44:12.066                     : 00:44:12.066
00:54:36.690                     : 00:54:36.690
01:06:36.367                     : 01:06:36.367
01:14:39.266                     : 01:14:39.266
01:27:29.161                     : 01:27:29.161
01:36:55.393                     : 01:36:55.393
01:53:14.246                     : 01:53:14.246
02:03:03.793                     : 02:03:03.793
02:14:10.751                     : 02:14:10.751
02:23:16.379                     : 02:23:16.379

                              SUB:
  The.Town.2010.EXTENDED.CUT.720p.Bluray.x264.anoXmous_swe.srt

           http://www.imdb.com/title/tt0840361/

  +++++++++ This work very fine with PSP and XBOX :) ++++++++++